<?xml version="1.0" encoding="utf-8"?>
<!-- Generator: Adobe Illustrator 24.3.0, SVG Export Plug-In . SVG Version: 6.00 Build 0)  -->
<svg version="1.1" id="レイヤー_1" xmlns="http://www.w3.org/2000/svg" xmlns:xlink="http://www.w3.org/1999/xlink" x="0px"
	 y="0px" viewBox="0 0 24 24" style="enable-background:new 0 0 24 24;" xml:space="preserve">
<style type="text/css">
	.st0{fill:#F14B43;}
</style>
<path class="st0" d="M20.5,5.9h-4v-1c0-1.7-1.3-3-3-3h-2c-1.7,0-3,1.3-3,3v1h-4c-0.6,0-1,0.4-1,1s0.4,1,1,1h1v11c0,1.7,1.3,3,3,3h8
	c1.7,0,3-1.3,3-3v-11h1c0.6,0,1-0.4,1-1S21.1,5.9,20.5,5.9z M10.5,4.9c0-0.6,0.4-1,1-1h2c0.6,0,1,0.4,1,1v1h-4V4.9z M17.5,18.9
	c0,0.6-0.4,1-1,1h-8c-0.6,0-1-0.4-1-1v-11h10V18.9z"/>
</svg>
